<svg xmlns="http://www.w3.org/2000/svg" viewBox="0 0 990 350" font-family="Segoe UI, Roboto, sans-serif">
<rect width="990" height="350" rx="14" fill="#0b1016"/>
<defs><marker id="a" viewBox="0 0 10 10" refX="9" refY="5" markerWidth="7" markerHeight="7" orient="auto"><path d="M0 0L10 5L0 10z" fill="#94a3b8"/></marker></defs>
<text x="20" y="26" fill="#e6edf3" font-size="15" font-weight="700">Machine Monitor · architecture</text>
<rect x="210" y="32" width="370" height="128" rx="12" fill="none" stroke="#334155" stroke-dasharray="5 4"/>
<text x="395" y="176" fill="#7d8b99" font-size="11" text-anchor="middle">Embarqué (simulé : Wokwi / Renode)</text>
<rect x="410" y="200" width="570" height="130" rx="12" fill="none" stroke="#334155" stroke-dasharray="5 4"/>
<text x="30" y="318" fill="#7d8b99" font-size="11">Alertes : ⚠ Warning · 🚨 Anomaly · 🚨 Possible failure</text>
<rect x="20" y="40" width="150" height="110" rx="10" fill="#121a23" stroke="#64748b" stroke-width="1.6"/>
<rect x="20" y="40" width="150" height="6" rx="3" fill="#64748b"/>
<text x="95.0" y="70" fill="#e6edf3" font-size="14" font-weight="700" text-anchor="middle">Capteurs</text>
<text x="95.0" y="94" fill="#94a3b8" font-size="11" text-anchor="middle">DHT22 · temp/hum</text>
<text x="95.0" y="112" fill="#94a3b8" font-size="11" text-anchor="middle">MPU6050 · vibration</text>
<text x="95.0" y="130" fill="#94a3b8" font-size="11" text-anchor="middle">ACS712 · courant</text>
<rect x="220" y="40" width="150" height="110" rx="10" fill="#121a23" stroke="#0ea5e9" stroke-width="1.6"/>
<rect x="220" y="40" width="150" height="6" rx="3" fill="#0ea5e9"/>
<text x="295.0" y="70" fill="#e6edf3" font-size="14" font-weight="700" text-anchor="middle">STM32</text>
<text x="295.0" y="94" fill="#94a3b8" font-size="11" text-anchor="middle">FreeRTOS · 4 tâches</text>
<text x="295.0" y="112" fill="#94a3b8" font-size="11" text-anchor="middle">GPIO · I2C · ADC</text>
<text x="295.0" y="130" fill="#94a3b8" font-size="11" text-anchor="middle">RMS · seuils</text>
<rect x="420" y="40" width="150" height="110" rx="10" fill="#121a23" stroke="#0ea5e9" stroke-width="1.6"/>
<rect x="420" y="40" width="150" height="6" rx="3" fill="#0ea5e9"/>
<text x="495.0" y="70" fill="#e6edf3" font-size="14" font-weight="700" text-anchor="middle">ESP32</text>
<text x="495.0" y="94" fill="#94a3b8" font-size="11" text-anchor="middle">FreeRTOS · Wi-Fi</text>
<text x="495.0" y="112" fill="#94a3b8" font-size="11" text-anchor="middle">OLED · LEDs · buzzer</text>
<text x="495.0" y="130" fill="#94a3b8" font-size="11" text-anchor="middle">tampon hors ligne</text>
<rect x="620" y="40" width="150" height="110" rx="10" fill="#121a23" stroke="#a855f7" stroke-width="1.6"/>
<rect x="620" y="40" width="150" height="6" rx="3" fill="#a855f7"/>
<text x="695.0" y="70" fill="#e6edf3" font-size="14" font-weight="700" text-anchor="middle">Broker MQTT</text>
<text x="695.0" y="94" fill="#94a3b8" font-size="11" text-anchor="middle">Mosquitto / HiveMQ</text>
<text x="695.0" y="112" fill="#94a3b8" font-size="11" text-anchor="middle">telemetry · status</text>
<text x="695.0" y="130" fill="#94a3b8" font-size="11" text-anchor="middle">cmd (retour)</text>
<rect x="620" y="210" width="150" height="110" rx="10" fill="#121a23" stroke="#22c55e" stroke-width="1.6"/>
<rect x="620" y="210" width="150" height="6" rx="3" fill="#22c55e"/>
<text x="695.0" y="240" fill="#e6edf3" font-size="14" font-weight="700" text-anchor="middle">Node.js</text>
<text x="695.0" y="264" fill="#94a3b8" font-size="11" text-anchor="middle">seuils + z-score</text>
<text x="695.0" y="282" fill="#94a3b8" font-size="11" text-anchor="middle">tendance prédictive</text>
<text x="695.0" y="300" fill="#94a3b8" font-size="11" text-anchor="middle">API REST</text>
<rect x="420" y="210" width="150" height="110" rx="10" fill="#121a23" stroke="#22c55e" stroke-width="1.6"/>
<rect x="420" y="210" width="150" height="6" rx="3" fill="#22c55e"/>
<text x="495.0" y="240" fill="#e6edf3" font-size="14" font-weight="700" text-anchor="middle">MongoDB</text>
<text x="495.0" y="264" fill="#94a3b8" font-size="11" text-anchor="middle">télémétrie (TTL 7 j)</text>
<text x="495.0" y="282" fill="#94a3b8" font-size="11" text-anchor="middle">alertes</text>
<text x="495.0" y="300" fill="#94a3b8" font-size="11" text-anchor="middle">agrégations</text>
<rect x="820" y="210" width="150" height="110" rx="10" fill="#121a23" stroke="#f59e0b" stroke-width="1.6"/>
<rect x="820" y="210" width="150" height="6" rx="3" fill="#f59e0b"/>
<text x="895.0" y="240" fill="#e6edf3" font-size="14" font-weight="700" text-anchor="middle">Dashboard React</text>
<text x="895.0" y="264" fill="#94a3b8" font-size="11" text-anchor="middle">temps réel (Socket.io)</text>
<text x="895.0" y="282" fill="#94a3b8" font-size="11" text-anchor="middle">alertes · commandes</text>
<text x="895.0" y="300" fill="#94a3b8" font-size="11" text-anchor="middle">export CSV</text>
<line x1="170" y1="95" x2="218" y2="95" stroke="#94a3b8" stroke-width="1.6" marker-end="url(#a)"/>
<text x="195.0" y="88.0" fill="#cbd5e1" font-size="10" text-anchor="middle">I2C/ADC</text>
<line x1="370" y1="95" x2="418" y2="95" stroke="#94a3b8" stroke-width="1.6" marker-end="url(#a)"/>
<text x="395.0" y="88.0" fill="#cbd5e1" font-size="10" text-anchor="middle">UART</text>
<line x1="570" y1="95" x2="618" y2="95" stroke="#94a3b8" stroke-width="1.6" marker-end="url(#a)"/>
<text x="595.0" y="88.0" fill="#cbd5e1" font-size="10" text-anchor="middle">Wi-Fi</text>
<line x1="695" y1="150" x2="697" y2="208" stroke="#94a3b8" stroke-width="1.6" marker-end="url(#a)"/>
<text x="703.0" y="184.0" fill="#cbd5e1" font-size="10">MQTT</text>
<line x1="620" y1="265" x2="572" y2="265" stroke="#94a3b8" stroke-width="1.6" marker-end="url(#a)"/>
<line x1="770" y1="265" x2="818" y2="265" stroke="#94a3b8" stroke-width="1.6" marker-end="url(#a)"/>
<text x="795.0" y="258.0" fill="#cbd5e1" font-size="10" text-anchor="middle">WebSocket</text>
</svg>